<svg 
 xmlns="http://www.w3.org/2000/svg"
 xmlns:xlink="http://www.w3.org/1999/xlink"
 width="21px" height="23px">
<defs>
<filter id="Filter_0">
                <feFlood flood-color="rgb(102, 102, 102)" flood-opacity="1" result="floodOut" />
                <feComposite operator="atop" in="floodOut" in2="SourceGraphic" result="compOut" />
                <feBlend mode="normal" in="compOut" in2="SourceGraphic" />
            </filter>

</defs>
<g filter="url(#Filter_0)">
<path fill-rule="evenodd"
 d="M15.704,22.543 L5.234,22.543 C2.343,22.543 0.0,20.380 0.0,17.712 C0.0,15.44 2.343,12.882 5.234,12.882 L15.704,12.882 C18.596,12.882 20.940,15.44 20.940,17.712 C20.940,20.380 18.596,22.543 15.704,22.543 ZM15.785,14.492 L5.154,14.492 C3.197,14.492 1.610,15.933 1.610,17.712 C1.610,19.492 3.197,20.933 5.154,20.933 L15.785,20.933 C17.742,20.933 19.329,19.492 19.329,17.712 C19.329,15.933 17.742,14.492 15.785,14.492 ZM10.470,11.271 C7.356,11.271 4.832,8.748 4.832,5.635 C4.832,2.523 7.356,0.0 10.470,0.0 C13.583,0.0 16.107,2.523 16.107,5.635 C16.107,8.748 13.583,11.271 10.470,11.271 ZM10.470,1.610 C8.246,1.610 6.443,3.412 6.443,5.635 C6.443,7.859 8.246,9.661 10.470,9.661 C12.693,9.661 14.496,7.859 14.496,5.635 C14.496,3.412 12.693,1.610 10.470,1.610 Z"/>
</g>
</svg>
