<svg 
 xmlns="http://www.w3.org/2000/svg"
 xmlns:xlink="http://www.w3.org/1999/xlink"
 width="20px" height="23px">
<defs>
<filter id="Filter_0">
                <feFlood flood-color="rgb(102, 102, 102)" flood-opacity="1" result="floodOut" />
                <feComposite operator="atop" in="floodOut" in2="SourceGraphic" result="compOut" />
                <feBlend mode="normal" in="compOut" in2="SourceGraphic" />
            </filter>

</defs>
<g filter="url(#Filter_0)">
<path fill-rule="evenodd"
 d="M14.971,20.417 C12.602,22.97 10.256,22.725 10.158,22.751 C10.92,22.768 10.25,22.777 9.958,22.777 C9.892,22.777 9.826,22.768 9.762,22.752 C9.663,22.727 7.303,22.112 4.920,20.437 C1.701,18.176 0.0,15.68 0.0,11.447 L0.0,3.467 C0.0,3.30 0.353,2.677 0.789,2.677 C5.88,2.677 9.524,0.190 9.569,0.165 C9.812,0.27 10.111,0.28 10.354,0.169 C10.396,0.194 14.734,2.677 19.71,2.677 C19.506,2.677 19.860,3.30 19.860,3.467 L19.860,11.447 C19.860,15.46 18.169,18.148 14.971,20.417 ZM18.281,4.233 C14.549,4.18 11.97,2.355 9.953,1.751 C8.796,2.351 5.282,4.15 1.578,4.233 L1.578,11.447 C1.578,14.560 2.995,17.140 5.788,19.117 C7.561,20.372 9.366,20.985 9.955,21.164 C10.541,20.982 12.334,20.360 14.96,19.101 C16.873,17.116 18.281,14.541 18.281,11.447 L18.281,4.233 ZM9.754,15.191 C9.606,15.339 9.405,15.422 9.196,15.422 C8.986,15.422 8.786,15.339 8.638,15.191 L5.69,11.619 C4.765,11.310 4.767,10.813 5.73,10.506 C5.380,10.199 5.876,10.197 6.185,10.502 L9.196,13.515 L14.412,8.294 C14.720,7.989 15.217,7.990 15.524,8.297 C15.831,8.605 15.833,9.102 15.528,9.411 L9.754,15.191 Z"/>
</g>
</svg>
