<?xml version="1.0" standalone="no"?><!DOCTYPE svg PUBLIC "-//W3C//DTD SVG 1.1//EN" "http://www.w3.org/Graphics/SVG/1.1/DTD/svg11.dtd"><svg t="1658134059584" class="icon" viewBox="0 0 1024 1024" version="1.1" xmlns="http://www.w3.org/2000/svg" p-id="2308" xmlns:xlink="http://www.w3.org/1999/xlink" width="64" height="64"><defs><style type="text/css">@font-face { font-family: feedback-iconfont; src: url("//at.alicdn.com/t/font_1031158_u69w8yhxdu.woff2?t=1630033759944") format("woff2"), url("//at.alicdn.com/t/font_1031158_u69w8yhxdu.woff?t=1630033759944") format("woff"), url("//at.alicdn.com/t/font_1031158_u69w8yhxdu.ttf?t=1630033759944") format("truetype"); }
</style></defs><path fill="currentColor" d="M846.5 129.3h-666c-64.2 0-116.4 52-116.4 115.8v538.5c0 63.8 52.2 115.8 116.4 115.8h666c64.2 0 116.4-52 116.4-115.8V245.1c0-63.9-52.3-115.8-116.4-115.8zM342.9 817.5H180.5c-18.8 0-34.1-15.2-34.1-33.9v-97.4H343v131.3z m0-199.5H146.3V486.8h196.6V618z m0-199.5H146.3V286h196.6v132.5z m282 399H411.5V686.2h213.3v131.3z m0-199.5H411.5V486.8h213.3V618z m0-199.5H411.5V286h213.3v132.5z m255.7 365.1c0 18.7-15.3 33.9-34.1 33.9H693.4V686.2h187.1v97.4z m0-165.6H693.4V486.8h187.1V618z m0-199.5H693.4V286h187.1v132.5z" p-id="2309"></path></svg>