<svg 
 xmlns="http://www.w3.org/2000/svg"
 xmlns:xlink="http://www.w3.org/1999/xlink"
 width="22px" height="22px">
<defs>
<filter id="Filter_0">
                <feFlood flood-color="rgb(102, 102, 102)" flood-opacity="1" result="floodOut" />
                <feComposite operator="atop" in="floodOut" in2="SourceGraphic" result="compOut" />
                <feBlend mode="normal" in="compOut" in2="SourceGraphic" />
            </filter>

</defs>
<g filter="url(#Filter_0)">
<path fill-rule="evenodd"
 d="M17.679,21.17 L4.30,21.17 C2.194,21.17 0.692,19.515 0.692,17.679 L0.692,10.62 C0.692,8.226 2.194,6.724 4.30,6.724 L4.316,6.724 C4.578,3.362 7.403,0.692 10.849,0.692 C12.589,0.692 14.234,1.383 15.486,2.623 C16.606,3.744 17.274,5.186 17.393,6.736 L17.679,6.736 C19.515,6.736 21.17,8.226 21.17,10.74 L21.17,17.679 C21.17,19.515 19.515,21.17 17.679,21.17 ZM14.127,3.970 C13.245,3.88 12.88,2.599 10.849,2.599 C8.464,2.599 6.486,4.411 6.223,6.736 L15.462,6.736 C15.355,5.699 14.890,4.733 14.127,3.970 ZM19.122,10.74 C19.122,9.287 18.478,8.643 17.691,8.643 L4.30,8.643 C3.243,8.643 2.599,9.287 2.599,10.74 L2.599,17.679 C2.599,18.466 3.243,19.110 4.30,19.110 L17.679,19.110 C18.466,19.110 19.110,18.466 19.110,17.679 L19.122,17.679 L19.122,10.74 ZM10.849,16.332 C10.324,16.332 9.895,15.903 9.895,15.379 L9.895,11.683 C9.895,11.159 10.324,10.729 10.849,10.729 C11.373,10.729 11.802,11.159 11.802,11.683 L11.802,15.379 C11.802,15.903 11.373,16.332 10.849,16.332 Z"/>
</g>
</svg>
